HIERARCHY
ROOT joint_Root
{
	OFFSET 0.0 0.0 0.0
	CHANNELS 6 Xposition Yposition Zposition Zrotation Xrotation Yrotation 
	JOINT Hips
	{
		OFFSET 4.5925 91.4895 -427.239
		CHANNELS 6 Xposition Yposition Zposition Zrotation Xrotation Yrotation 
		JOINT Spine
		{
			OFFSET 15.7357 0.0 0.0
			CHANNELS 6 Xposition Yposition Zposition Zrotation Xrotation Yrotation 
			JOINT Chest
			{
				OFFSET 8.98455 -0.406207 0.0
				CHANNELS 6 Xposition Yposition Zposition Zrotation Xrotation Yrotation 
				JOINT Neck
				{
					OFFSET 16.3773 0.0 0.0
					CHANNELS 6 Xposition Yposition Zposition Zrotation Xrotation Yrotation 
					JOINT Head
					{
						OFFSET 6.45672 0.0 0.0
						CHANNELS 6 Xposition Yposition Zposition Zrotation Xrotation Yrotation 
						End Site
						{
							OFFSET 0.0 0.0 0.0
						}
					}
				}
				JOINT Shoulder_L
				{
					OFFSET 12.9942 -0.242716 4.98039
					CHANNELS 6 Xposition Yposition Zposition Zrotation Xrotation Yrotation 
					JOINT UpperArm_L
					{
						OFFSET 5.34809 0.0 0.0
						CHANNELS 6 Xposition Yposition Zposition Zrotation Xrotation Yrotation 
						JOINT LowerArm_L
						{
							OFFSET 24.3286 1.87007e-05 0.0
							CHANNELS 6 Xposition Yposition Zposition Zrotation Xrotation Yrotation 
							JOINT Hand_L
							{
								OFFSET 22.2916 0.0 0.0
								CHANNELS 6 Xposition Yposition Zposition Zrotation Xrotation Yrotation 
								End Site
								{
									OFFSET 0.0 0.0 0.0
								}
							}
						}
					}
				}
				JOINT Shoulder_R
				{
					OFFSET 12.9945 -0.242716 -4.98039
					CHANNELS 6 Xposition Yposition Zposition Zrotation Xrotation Yrotation 
					JOINT UpperArm_R
					{
						OFFSET -5.34813 0.0 0.0
						CHANNELS 6 Xposition Yposition Zposition Zrotation Xrotation Yrotation 
						JOINT LowerArm_R
						{
							OFFSET -24.3289 0.000322201 0.0
							CHANNELS 6 Xposition Yposition Zposition Zrotation Xrotation Yrotation 
							JOINT Hand_R
							{
								OFFSET -22.2915 -0.000108084 0.0
								CHANNELS 6 Xposition Yposition Zposition Zrotation Xrotation Yrotation 
								End Site
								{
									OFFSET 0.0 0.0 0.0
								}
							}
						}
					}
				}
			}
		}
		JOINT UpperLeg_L
		{
			OFFSET -2.19248 -6.46944 0.0
			CHANNELS 6 Xposition Yposition Zposition Zrotation Xrotation Yrotation 
			JOINT LowerLeg_L
			{
				OFFSET 39.0811 0.0 -1.23785e-05
				CHANNELS 6 Xposition Yposition Zposition Zrotation Xrotation Yrotation 
				JOINT Foot_L
				{
					OFFSET 40.9854 0.0 -1.26872e-05
					CHANNELS 6 Xposition Yposition Zposition Zrotation Xrotation Yrotation 
					JOINT Toes_L
					{
						OFFSET 11.7543 0.0 0.0
						CHANNELS 6 Xposition Yposition Zposition Zrotation Xrotation Yrotation 
						End Site
						{
							OFFSET 0.0 0.0 0.0
						}
					}
				}
			}
		}
		JOINT UpperLeg_R
		{
			OFFSET -2.19251 6.46944 0.0
			CHANNELS 6 Xposition Yposition Zposition Zrotation Xrotation Yrotation 
			JOINT LowerLeg_R
			{
				OFFSET -39.0811 -0.00228153 -0.0401928
				CHANNELS 6 Xposition Yposition Zposition Zrotation Xrotation Yrotation 
				JOINT Foot_R
				{
					OFFSET -40.9854 0.0 0.0
					CHANNELS 6 Xposition Yposition Zposition Zrotation Xrotation Yrotation 
					JOINT Toes_R
					{
						OFFSET -11.7543 0.0 0.0
						CHANNELS 6 Xposition Yposition Zposition Zrotation Xrotation Yrotation 
						End Site
						{
							OFFSET 0.0 0.0 0.0
						}
					}
				}
			}
		}
	}
}
MOTION
Frames:	7
Frame Time:	0.0333333
0.000000 0.000000 0.000000 0.000000 0.000000 -0.000000 11.236200 83.279500 -20.109600 89.692600 -1.263530 -0.486346 15.735700 0.000005 -0.000001 65.645800 82.425300 -63.610200 8.984550 -0.406207 -0.000000 6.178540 -6.258280 4.408040 16.377300 -0.000001 -0.000001 -5.165080 -4.162470 1.034710 6.456720 -0.000001 -0.000000 -12.358600 -1.669450 0.639865 12.994200 -0.242716 4.980390 -90.166600 0.573752 -73.816500 5.348090 -0.000007 -0.000001 -72.627400 37.172700 -13.569600 24.328600 0.000019 0.000005 18.593900 -1.537250 -94.573800 22.291600 -0.000001 0.000005 13.680300 5.502950 -6.641600 12.994500 -0.242716 -4.980390 87.771100 8.363010 -75.017000 -5.348130 -0.000001 -0.000004 -58.917300 39.512200 4.798010 -24.328900 0.000322 -0.000009 -11.378000 3.859790 -108.493000 -22.291500 -0.000108 -0.000004 17.188200 5.583590 -10.404600 -2.192480 -6.469440 -0.000000 -174.303000 -5.601270 -0.953451 39.081100 -0.000007 -0.000012 -0.058859 0.007491 82.754700 40.985400 -0.000006 -0.000013 4.400360 -14.267300 -39.446100 11.754300 -0.000000 0.000003 -0.006960 -0.079332 -19.806300 -2.192510 6.469440 -0.000001 -170.294000 3.155390 154.181000 -39.081100 -0.002282 -0.040193 0.188021 -0.117405 57.572800 -40.985400 0.000008 0.000006 15.419300 -5.594240 -80.966900 -11.754300 -0.000006 -0.000006 -1.095710 -1.351520 -17.294500
0.000000 0.000000 0.000000 0.000000 0.000000 -0.000000 11.531200 82.168200 -13.137500 89.416200 -0.847903 -0.671455 15.735700 0.000005 -0.000001 73.060500 82.685300 -70.576700 8.984550 -0.406207 -0.000000 6.340140 -4.281030 5.201060 16.377300 -0.000001 -0.000001 -4.968960 -4.099460 1.113320 6.456720 -0.000001 -0.000000 -12.478200 -1.551160 -0.332597 12.994200 -0.242716 4.980390 -90.329500 1.129950 -73.743400 5.348090 -0.000007 -0.000001 -72.644000 36.233600 -6.875150 24.328600 0.000019 0.000005 25.063800 0.616888 -88.681700 22.291600 -0.000001 0.000005 12.135000 5.492260 -6.210380 12.994500 -0.242716 -4.980390 87.951900 8.463820 -76.344200 -5.348130 -0.000001 -0.000004 -55.613500 39.672400 -6.738330 -24.328900 0.000322 -0.000009 -8.562670 2.384590 -105.444000 -22.291500 -0.000108 -0.000004 18.822400 5.573510 -9.869590 -2.192480 -6.469440 -0.000000 -175.141000 -2.213850 -11.543500 39.081100 -0.000007 -0.000012 -0.249580 -0.022355 95.120500 40.985400 -0.000006 -0.000013 8.973280 -10.661900 -39.675600 11.754300 -0.000000 0.000003 -0.006473 -0.075084 -19.633000 -2.192510 6.469440 -0.000001 -171.154000 7.578150 159.146000 -39.081100 -0.002282 -0.040193 0.192441 -0.115003 58.711600 -40.985400 0.000008 0.000006 16.258200 -3.554100 -87.376500 -11.754300 -0.000006 -0.000006 -1.401870 -1.720980 -17.791200
0.000000 0.000000 0.000000 0.000000 0.000000 -0.000000 11.899600 82.838600 -5.916320 90.748600 -1.997800 -1.674460 15.735700 0.000005 -0.000001 86.117800 83.313200 -84.096300 8.984550 -0.406207 -0.000000 5.597270 -0.941493 4.084460 16.377300 -0.000001 -0.000001 -5.338910 -4.031600 1.661390 6.456720 -0.000001 -0.000000 -11.969700 -2.514930 0.266315 12.994200 -0.242716 4.980390 -90.159300 0.524940 -73.089500 5.348090 -0.000007 -0.000001 -70.441100 38.596600 -0.499953 24.328600 0.000019 0.000005 24.565700 -0.703298 -91.550600 22.291600 -0.000001 0.000005 6.851700 5.501030 -6.573310 12.994500 -0.242716 -4.980390 88.318200 7.803610 -77.799300 -5.348130 -0.000001 -0.000004 -55.048100 38.251200 -13.778300 -24.328900 0.000322 -0.000009 -5.910150 1.763890 -106.561000 -22.291500 -0.000108 -0.000004 17.486200 5.584990 -10.484400 -2.192480 -6.469440 -0.000000 -177.421000 -0.419246 -21.354500 39.081100 -0.000007 -0.000012 -0.286977 -0.049218 99.733900 40.985400 -0.000006 -0.000013 9.601770 -7.331750 -43.364200 11.754300 -0.000000 0.000003 -0.006591 -0.076122 -19.675300 -2.192510 6.469440 -0.000001 -174.184000 8.651750 166.072000 -39.081100 -0.002282 -0.040193 0.175639 -0.125400 53.970000 -40.985400 0.000008 0.000006 16.360400 -1.385740 -88.867400 -11.754300 -0.000006 -0.000006 -2.065670 -2.455150 -19.495800
0.000000 0.000000 0.000000 0.000000 0.000000 -0.000000 12.154400 85.003300 1.775960 92.274300 -3.206410 -2.824080 15.735700 0.000005 -0.000001 102.055000 83.789800 -101.027000 8.984550 -0.406207 -0.000000 4.361920 2.559210 1.956610 16.377300 -0.000001 -0.000001 -5.218210 -3.688810 2.309700 6.456720 -0.000001 -0.000000 -12.194000 -4.420450 2.675920 12.994200 -0.242716 4.980390 -89.555600 -1.329260 -71.528400 5.348090 -0.000007 -0.000001 -68.135800 43.002000 4.785610 24.328600 0.000019 0.000005 14.303000 -1.606800 -96.297200 22.291600 -0.000001 0.000005 6.557960 5.484940 -5.937090 12.994500 -0.242716 -4.980390 88.746700 6.503000 -79.068500 -5.348130 -0.000001 -0.000004 -57.922600 37.742100 -15.235200 -24.328900 0.000322 -0.000009 -6.216890 2.164380 -109.115000 -22.291500 -0.000108 -0.000004 17.959300 5.587130 -10.600200 -2.192480 -6.469440 -0.000000 -179.703000 0.849111 -28.504300 39.081100 -0.000007 -0.000012 -0.220849 -0.025401 96.563700 40.985400 -0.000006 -0.000013 8.235670 -7.797670 -48.615800 11.754300 -0.000000 0.000003 -0.005868 -0.069642 -19.411000 -2.192510 6.469440 -0.000001 -177.611000 9.350150 173.858000 -39.081100 -0.002282 -0.040193 0.152199 -0.145502 45.668400 -40.985400 0.000008 0.000006 16.530600 2.084430 -83.155900 -11.754300 -0.000006 -0.000006 -0.020656 -0.170898 -23.556600
0.000000 0.000000 0.000000 0.000000 0.000000 -0.000000 12.524200 88.003200 9.699220 93.843400 -4.619250 -5.486440 15.735700 0.000005 -0.000001 120.290000 84.059700 -120.549000 8.984550 -0.406207 -0.000000 2.519050 5.999280 -0.650478 16.377300 -0.000001 -0.000001 -5.911460 -3.442600 2.627640 6.456720 -0.000001 -0.000000 -12.675800 -6.081420 4.440370 12.994200 -0.242716 4.980390 -88.817800 -3.262740 -70.075200 5.348090 -0.000007 -0.000001 -65.878700 45.042600 8.417650 24.328600 0.000019 0.000005 10.134600 -1.856890 -100.273000 22.291600 -0.000001 0.000005 4.772860 5.479570 -5.736660 12.994500 -0.242716 -4.980390 89.136600 4.980560 -80.154300 -5.348130 -0.000001 -0.000004 -61.619700 38.025400 -14.495000 -24.328900 0.000322 -0.000009 -7.690370 2.943980 -110.823000 -22.291500 -0.000108 -0.000004 18.328100 5.586270 -10.553700 -2.192480 -6.469440 -0.000000 177.819000 1.681020 -33.948300 39.081100 -0.000007 -0.000012 -0.134315 0.008130 86.539800 40.985400 -0.000006 -0.000013 8.035880 -10.160200 -52.766700 11.754300 -0.000000 0.000003 -0.006783 -0.077794 -19.743600 -2.192510 6.469440 -0.000001 178.607000 10.757200 178.283000 -39.081100 -0.002282 -0.040193 0.116507 -0.142343 38.499900 -40.985400 0.000008 0.000006 16.321300 7.908900 -71.296600 -11.754300 -0.000006 -0.000006 -0.101660 -0.448655 -35.306500
0.000000 0.000000 0.000000 0.000000 0.000000 -0.000000 12.840600 90.968600 17.766400 94.294900 -5.651140 -7.208360 15.735700 0.000005 -0.000001 132.328000 83.776500 -133.454000 8.984550 -0.406207 -0.000000 1.538360 8.438380 -2.367940 16.377300 -0.000001 -0.000001 -6.662090 -3.101990 2.475370 6.456720 -0.000001 -0.000000 -13.654300 -6.864590 4.518410 12.994200 -0.242716 4.980390 -88.202000 -4.653960 -68.850700 5.348090 -0.000007 -0.000001 -64.371300 44.166200 11.625000 24.328600 0.000019 0.000005 11.191500 -2.573210 -102.785000 22.291600 -0.000001 0.000005 3.339330 5.477900 -5.665860 12.994500 -0.242716 -4.980390 89.443400 3.583960 -81.167800 -5.348130 -0.000001 -0.000004 -63.801100 39.147400 -13.896600 -24.328900 0.000322 -0.000009 -7.372050 2.948650 -111.683000 -22.291500 -0.000108 -0.000004 17.714800 5.580400 -10.230400 -2.192480 -6.469440 -0.000000 177.034000 2.248690 -35.529400 39.081100 -0.000007 -0.000012 -0.046216 0.015486 71.482100 40.985400 -0.000006 -0.000013 7.146450 -12.021600 -56.239400 11.754300 -0.000000 0.000003 -0.006277 -0.073336 -19.561700 -2.192510 6.469440 -0.000001 174.921000 15.047900 -178.293000 -39.081100 -0.002282 -0.040193 0.096261 -0.143021 33.024600 -40.985400 0.000008 0.000006 13.924600 16.907700 -55.400900 -11.754300 -0.000006 -0.000006 -0.195967 -0.638363 -43.903800
0.000000 0.000000 0.000000 0.000000 0.000000 -0.000000 12.841700 92.778800 25.920800 93.358500 -5.185750 -7.313800 15.735700 0.000005 -0.000001 135.000000 83.366500 -136.270000 8.984550 -0.406207 -0.000000 1.745850 9.442700 -2.686560 16.377300 -0.000001 -0.000001 -7.215260 -3.040540 2.158160 6.456720 -0.000001 -0.000000 -14.704200 -6.675450 2.957210 12.994200 -0.242716 4.980390 -87.667700 -5.905930 -68.404200 5.348090 -0.000007 -0.000001 -64.137800 41.129800 14.244100 24.328600 0.000019 0.000005 10.356600 -2.595020 -103.915000 22.291600 -0.000001 0.000005 3.171820 5.457670 -4.916730 12.994500 -0.242716 -4.980390 89.692100 2.126130 -81.762300 -5.348130 -0.000001 -0.000004 -64.691700 40.689000 -14.119900 -24.328900 0.000322 -0.000009 -6.030610 2.386080 -111.507000 -22.291500 -0.000108 -0.000004 16.655000 5.555480 -8.961650 -2.192480 -6.469440 -0.000000 178.320000 3.143560 -33.614300 39.081100 -0.000007 -0.000012 0.019333 -0.013983 54.113900 40.985400 -0.000006 -0.000013 6.607750 -9.946350 -59.684600 11.754300 -0.000000 0.000003 -0.005773 -0.068767 -19.375300 -2.192510 6.469440 -0.000001 172.283000 19.024200 -174.934000 -39.081100 -0.002282 -0.040193 0.125997 -0.203423 31.096900 -40.985400 0.000008 0.000006 5.245690 21.992300 -40.803800 -11.754300 -0.000006 -0.000006 -0.080213 -0.392539 -32.870900
